<svg xmlns="http://www.w3.org/2000/svg" viewBox="0 0 36 24" role="img" aria-label="Saudi Arabia">
  <rect width="36" height="24" fill="#006c35"/>
  <g fill="#fff">
    <rect x="9" y="15.4" width="17" height="1.2" rx=".6"/>
    <path d="M25.8 14.8c1.8.1 3-.3 3.9-1.2-1.7.1-3 .1-4.1-.4l.2 1.6z"/>
    <path d="M7.2 9.1c.7-1.6 2.7-1.6 3.5-.2.9-1.1 2.5-1.1 3.4 0 .9-1.1 2.6-1.1 3.5 0 .9-1.1 2.6-1 3.4.1.9-1.3 2.7-1.2 3.4.2.8-1.3 2.8-1 3.2.6.3 1.1-.2 2.1-1.1 2.7H9.4c-1.5-.6-2.7-1.7-2.2-3.4z"/>
    <rect x="8" y="12.7" width="20" height="1" rx=".5"/>
  </g>
</svg>
