<svg xmlns="http://www.w3.org/2000/svg" viewBox="0 0 36 24" role="img" aria-label="United States">
  <rect width="36" height="24" fill="#b22234"/>
  <g fill="#fff">
    <rect y="2" width="36" height="2"/>
    <rect y="6" width="36" height="2"/>
    <rect y="10" width="36" height="2"/>
    <rect y="14" width="36" height="2"/>
    <rect y="18" width="36" height="2"/>
    <rect y="22" width="36" height="2"/>
  </g>
  <rect width="16" height="13" fill="#3c3b6e"/>
  <g fill="#fff">
    <circle cx="2.4" cy="2.2" r=".55"/><circle cx="5.5" cy="2.2" r=".55"/><circle cx="8.6" cy="2.2" r=".55"/><circle cx="11.7" cy="2.2" r=".55"/><circle cx="14.8" cy="2.2" r=".55"/>
    <circle cx="3.9" cy="4.3" r=".55"/><circle cx="7" cy="4.3" r=".55"/><circle cx="10.1" cy="4.3" r=".55"/><circle cx="13.2" cy="4.3" r=".55"/>
    <circle cx="2.4" cy="6.4" r=".55"/><circle cx="5.5" cy="6.4" r=".55"/><circle cx="8.6" cy="6.4" r=".55"/><circle cx="11.7" cy="6.4" r=".55"/><circle cx="14.8" cy="6.4" r=".55"/>
    <circle cx="3.9" cy="8.5" r=".55"/><circle cx="7" cy="8.5" r=".55"/><circle cx="10.1" cy="8.5" r=".55"/><circle cx="13.2" cy="8.5" r=".55"/>
    <circle cx="2.4" cy="10.6" r=".55"/><circle cx="5.5" cy="10.6" r=".55"/><circle cx="8.6" cy="10.6" r=".55"/><circle cx="11.7" cy="10.6" r=".55"/><circle cx="14.8" cy="10.6" r=".55"/>
  </g>
</svg>
